<svg width="745" height="320" viewBox="0 0 745 320" fill="none" xmlns="http://www.w3.org/2000/svg">
<path d="M47.4375 1H1V54M47.4375 1V54M47.4375 1H93.875M47.4375 54H1M47.4375 54V107M47.4375 54H93.875M1 54V107M47.4375 107H1M47.4375 107V160M47.4375 107H93.875M1 107V160M47.4375 160H1M47.4375 160V213M47.4375 160H93.875M1 160V213M47.4375 213H1M47.4375 213V266M47.4375 213H93.875M1 213V266M47.4375 266H1M47.4375 266V319M47.4375 266H93.875M1 266V319H47.4375M47.4375 319H93.875M93.875 1V54M93.875 1H140.313M93.875 54V107M93.875 54H140.313M93.875 107V160M93.875 107H140.313M93.875 160V213M93.875 160H140.313M93.875 213V266M93.875 213H140.313M93.875 266V319M93.875 266H140.313M93.875 319H140.313M140.313 1V54M140.313 1H186.75M140.313 54V107M140.313 54H186.75M140.313 107V160M140.313 107H186.75M140.313 160V213M140.313 160H186.75M140.313 213V266M140.313 213H186.75M140.313 266V319M140.313 266H186.75M140.313 319H186.75M186.75 1V54M186.75 1H233.188M186.75 54V107M186.75 54H233.188M186.75 107V160M186.75 107H233.188M186.75 160V213M186.75 160H233.188M186.75 213V266M186.75 213H233.188M186.75 266V319M186.75 266H233.188M186.75 319H233.188M233.188 1V54M233.188 1H279.625M233.188 54V107M233.188 54H279.625M233.188 107V160M233.188 107H279.625M233.188 160V213M233.188 160H279.625M233.188 213V266M233.188 213H279.625M233.188 266V319M233.188 266H279.625M233.188 319H279.625M279.625 1V54M279.625 1H326.063M279.625 54V107M279.625 54H326.063M279.625 107V160M279.625 107H326.063M279.625 160V213M279.625 160H326.063M279.625 213V266M279.625 213H326.063M279.625 266V319M279.625 266H326.063M279.625 319H326.063M326.063 1V54M326.063 1H372.5M326.063 54V107M326.063 54H372.5M326.063 107V160M326.063 107H372.5M326.063 160V213M326.063 160H372.5M326.063 213V266M326.063 213H372.5M326.063 266V319M326.063 266H372.5M326.063 319H372.5M372.5 1V54M372.5 1H418.938M372.5 54V107M372.5 54H418.938M372.5 107V160M372.5 107H418.938M372.5 160V213M372.5 160H418.938M372.5 213V266M372.5 213H418.938M372.5 266V319M372.5 266H418.938M372.5 319H418.938M418.938 1V54M418.938 1H465.375M418.938 54V107M418.938 54H465.375M418.938 107V160M418.938 107H465.375M418.938 160V213M418.938 160H465.375M418.938 213V266M418.938 213H465.375M418.938 266V319M418.938 266H465.375M418.938 319H465.375M465.375 1V54M465.375 1H511.813M465.375 54V107M465.375 54H511.813M465.375 107V160M465.375 107H511.813M465.375 160V213M465.375 160H511.813M465.375 213V266M465.375 213H511.813M465.375 266V319M465.375 266H511.813M465.375 319H511.813M511.813 1V54M511.813 1H558.25M511.813 54V107M511.813 54H558.25M511.813 107V160M511.813 107H558.25M511.813 160V213M511.813 160H558.25M511.813 213V266M511.813 213H558.25M511.813 266V319M511.813 266H558.25M511.813 319H558.25M558.25 1V54M558.25 1H604.688M558.25 54V107M558.25 54H604.688M558.25 107V160M558.25 107H604.688M558.25 160V213M558.25 160H604.688M558.25 213V266M558.25 213H604.688M558.25 266V319M558.25 266H604.688M558.25 319H604.688M604.688 1V54M604.688 1H651.125M604.688 54V107M604.688 54H651.125M604.688 107V160M604.688 107H651.125M604.688 160V213M604.688 160H651.125M604.688 213V266M604.688 213H651.125M604.688 266V319M604.688 266H651.125M604.688 319H651.125M651.125 1V54M651.125 1H697.563M651.125 54V107M651.125 54H697.563M651.125 107V160M651.125 107H697.563M651.125 160V213M651.125 160H697.563M651.125 213V266M651.125 213H697.563M651.125 266V319M651.125 266H697.563M651.125 319H697.563M697.563 1V54M697.563 1H744V54M697.563 54V107M697.563 54H744M697.563 107V160M697.563 107H744M697.563 160V213M697.563 160H744M697.563 213V266M697.563 213H744M697.563 266V319M697.563 266H744M697.563 319H744V266M744 54V107M744 107V160M744 160V213M744 213V266" stroke="url(#paint0_radial_84_3312)" stroke-opacity="0.24"/>
<defs>
<radialGradient id="paint0_radial_84_3312" cx="0" cy="0" r="1" gradientUnits="userSpaceOnUse" gradientTransform="translate(372.5 160) rotate(90) scale(159 371.5)">
<stop stop-color="#FCF9B2"/>
<stop offset="1" stop-color="#2E2D23"/>
</radialGradient>
</defs>
</svg>
